<svg width="19" height="19" viewBox="0 0 19 19" fill="none" xmlns="http://www.w3.org/2000/svg">
<path d="M18.8535 0.499998C18.8535 0.223856 18.6297 -1.23287e-06 18.3535 -2.02202e-06L13.8535 -2.10632e-06C13.5774 -1.58892e-06 13.3535 0.223856 13.3535 0.499998C13.3535 0.776141 13.5774 0.999999 13.8535 0.999998L17.8535 0.999999L17.8535 5C17.8535 5.27614 18.0774 5.5 18.3535 5.5C18.6297 5.5 18.8535 5.27614 18.8535 5L18.8535 0.499998ZM0.353546 18.5L0.7071 18.8536L18.7071 0.853552L18.3535 0.499998L18 0.146445L-7.27177e-06 18.1464L0.353546 18.5Z" fill="#208B95"/>
</svg>
