<?xml version="1.0" encoding="utf-8"?>
<!-- Generator: Adobe Illustrator 27.9.0, SVG Export Plug-In . SVG Version: 6.00 Build 0)  -->
<svg version="1.1" id="Слой_1" xmlns="http://www.w3.org/2000/svg" xmlns:xlink="http://www.w3.org/1999/xlink" x="0px" y="0px"
	 viewBox="0 0 31 34" style="enable-background:new 0 0 31 34;" xml:space="preserve">
<style type="text/css">
	.st0{fill:#2CACBB;}
</style>
<path class="st0" d="M12.4,33.9c-3.4,0-7.1-2-9.5-5.2c0,0,0,0,0,0C1,26.2,0,23.2,0,19.9c0-0.3,0.2-0.6,0.5-0.8
	c0.3-0.2,0.6-0.2,0.9,0c3,1.5,6.8,2.7,13.3-1.2l4.7-7.2c0,0,0,0,0,0l6.1-9.3c0.3-0.6,0.9-1,1.6-1.3c0.7-0.2,1.4-0.1,2.1,0.2
	C29.5,0.5,29.8,0.7,30,1c0.2,0.3,0.4,0.6,0.5,1c0.1,0.4,0.2,0.7,0.1,1.1c0,0.4-0.1,0.7-0.3,1.1l-5.2,10.1c0,0,0,0,0,0L21.1,22
	c-0.5,4.1-3.1,10.5-8.5,11.8C12.6,33.9,12.5,33.9,12.4,33.9z M6,29.2c1.9,1.7,4.2,2.7,6.3,2.8c4.6-1.2,6.4-7,6.8-9.8l-3.8-2.5
	c-5.9,3.5-10,3.1-13.3,1.7c0.2,2.1,1,4.1,2.2,5.8c1.9,0.2,5.3,0,7.7-1.5c0.4-0.3,1-0.2,1.3,0.3c0.3,0.4,0.2,1-0.3,1.3
	C10.8,28.8,8.1,29.2,6,29.2z M16.7,18.3l3.1,2.1l3.3-6.3l-2.6-1.6L16.7,18.3z M21.5,10.9l2.4,1.5l4.8-9.2c0-0.1,0.1-0.2,0.1-0.3
	c0-0.1,0-0.2,0-0.4c0-0.1-0.1-0.2-0.2-0.3c-0.1-0.1-0.2-0.2-0.3-0.2c-0.2-0.1-0.5-0.1-0.7-0.1c-0.2,0.1-0.4,0.2-0.5,0.4L21.5,10.9z"
	/>
<path class="st0" d="M5.8,14.7C5.8,14.7,5.8,14.7,5.8,14.7c-0.4,0-0.8-0.2-0.9-0.6l-0.4-1c-0.4-1.2-0.6-1.7-0.9-2
	c-0.3-0.3-0.8-0.5-2-0.9l-1-0.4C0.2,9.7,0,9.4,0,9c0-0.4,0.2-0.8,0.6-0.9l1-0.4c1.2-0.4,1.7-0.6,2-0.9c0.3-0.3,0.5-0.8,0.9-2l0.4-1
	C5,3.4,5.4,3.2,5.8,3.2h0c0.4,0,0.8,0.2,0.9,0.6l0.4,1c0.4,1.2,0.6,1.7,0.9,2c0.3,0.3,0.8,0.5,2,0.9l1,0.4c0.4,0.1,0.6,0.5,0.6,0.9
	c0,0.4-0.2,0.8-0.6,0.9l-1,0.4c-1.2,0.4-1.7,0.6-2,0.9c-0.3,0.3-0.5,0.8-0.9,2l-0.4,1C6.5,14.5,6.2,14.7,5.8,14.7z M3.6,9
	c0.5,0.2,0.9,0.5,1.3,0.8c0.4,0.4,0.6,0.7,0.8,1.3c0.2-0.5,0.5-0.9,0.8-1.3C6.9,9.4,7.3,9.2,7.9,9C7.3,8.7,6.9,8.5,6.6,8.1
	C6.2,7.8,6,7.4,5.8,6.8C5.5,7.4,5.3,7.8,4.9,8.1C4.6,8.5,4.2,8.7,3.6,9z"/>
</svg>
