<?xml version="1.0" encoding="utf-8"?>
<!-- Generator: Adobe Illustrator 27.9.0, SVG Export Plug-In . SVG Version: 6.00 Build 0)  -->
<svg version="1.1" id="Слой_1" xmlns="http://www.w3.org/2000/svg" xmlns:xlink="http://www.w3.org/1999/xlink" x="0px" y="0px"
	 viewBox="0 0 26 26" style="enable-background:new 0 0 26 26;" xml:space="preserve">
<style type="text/css">
	.st0{fill:#2CACBB;}
</style>
<path class="st0" d="M11,26c-0.1,0-0.2,0-0.2,0C4,24.3,0.6,19.8,0,11.9c0-0.3,0.1-0.7,0.4-0.9c0.3-0.2,0.6-0.3,1-0.1
	c2.7,1.1,5.1,1.1,7.9,0h0c1.7-0.7,2.6-1,3.4-0.8c0.6,0.1,1,0.4,1.6,0.9l10-10.7c0.4-0.4,1-0.4,1.4,0c0.4,0.4,0.4,1,0,1.4l-10,10.7
	c0.4,0.4,0.6,0.7,0.8,1.2c0.2,0.6,0.2,1.1,0.1,1.9c-0.6,7.1-4.8,10.2-5,10.3C11.4,25.9,11.2,26,11,26z M2.2,13.2
	c1,7.5,5,9.7,8.6,10.7c0.9-0.8,3.4-3.5,3.8-8.6c0.1-0.7,0.1-0.9,0-1.1c-0.1-0.2-0.3-0.4-0.8-0.9c-0.8-0.8-1.3-1.3-1.6-1.3
	c-0.3-0.1-1.2,0.3-2.3,0.7C7.2,13.8,4.7,13.9,2.2,13.2z"/>
<path class="st0" d="M4,20c-0.7,0-1.1-0.1-1.2-0.1c-0.5-0.1-0.9-0.6-0.8-1.2c0.1-0.5,0.6-0.9,1.2-0.8c0.1,0,3,0.5,5.9-1.7
	c0.4-0.3,1.1-0.3,1.4,0.2c0.3,0.4,0.3,1.1-0.2,1.4C7.8,19.7,5.4,20,4,20z"/>
<path class="st0" d="M6.7,9.3C6,9.3,5.3,9.1,4.8,8.6S4,7.4,4,6.7C4,6,4.3,5.3,4.8,4.8c1-1,2.8-1,3.8,0C9.1,5.3,9.3,6,9.3,6.7
	c0,0.7-0.3,1.4-0.8,1.9S7.4,9.3,6.7,9.3z M6.7,6C6.5,6,6.3,6.1,6.2,6.2S6,6.5,6,6.7C6,6.8,6.1,7,6.2,7.1c0.2,0.3,0.7,0.2,0.9,0
	C7.3,7,7.3,6.8,7.3,6.7c0-0.2-0.1-0.3-0.2-0.5C7,6.1,6.8,6,6.7,6z"/>
<path class="st0" d="M11.7,3.8c-0.7,0-1.3-0.6-1.3-1.3V2.3c0-0.7,0.6-1.3,1.3-1.3S13,1.6,13,2.3v0.1C13,3.2,12.4,3.8,11.7,3.8z"/>
</svg>
