<svg width="26" height="26" viewBox="0 0 26 26" fill="none" xmlns="http://www.w3.org/2000/svg">
<path d="M6.28125 0.273438C6.50296 0.223103 6.73557 0.252907 6.93848 0.355469C7.14064 0.457726 7.30152 0.626583 7.39258 0.833984V0.834961L9.83008 6.52246C9.91268 6.71536 9.93009 6.93004 9.87988 7.13379C9.82967 7.33742 9.71441 7.51897 9.55176 7.65137L9.55078 7.65234L6.47363 10.1709L6.32227 10.2949L6.40625 10.4707C8.29478 14.4761 11.518 17.7003 15.5234 19.5889L15.7002 19.6719L15.8232 19.5205L18.3418 16.4434H18.3428C18.4755 16.2808 18.6575 16.1655 18.8613 16.1152C19.0651 16.0651 19.2796 16.0828 19.4727 16.165V16.1641L25.1582 18.6006V18.6016C25.368 18.6928 25.539 18.8546 25.6426 19.0586C25.7459 19.2622 25.7754 19.495 25.7256 19.7178L24.5068 24.999C24.4575 25.2124 24.3375 25.4028 24.166 25.5391C23.9945 25.6754 23.7816 25.7501 23.5625 25.75C10.6955 25.75 0.250249 15.3245 0.25 2.4375V2.43652C0.250055 2.21761 0.324677 2.00534 0.460938 1.83398C0.597288 1.66257 0.787557 1.54245 1.00098 1.49316L6.28125 0.273438Z" fill="white" stroke="white" stroke-width="0.5"/>
</svg>
