<?xml version="1.0" encoding="utf-8"?>
<!-- Generator: Adobe Illustrator 27.9.0, SVG Export Plug-In . SVG Version: 6.00 Build 0)  -->
<svg version="1.1" id="Слой_1" xmlns="http://www.w3.org/2000/svg" xmlns:xlink="http://www.w3.org/1999/xlink" x="0px" y="0px"
	 viewBox="0 0 38 34" style="enable-background:new 0 0 38 34;" xml:space="preserve">
<style type="text/css">
	.st0{fill:#2CACBB;}
</style>
<path class="st0" d="M29.4,19.8c-0.6,0-1-0.4-1-1c0-0.6,0.4-1,1-1c1,0,1.9-0.2,2.7-0.7c0.8-0.4,1.6-1.1,2.2-1.8s1-1.7,1.1-2.6
	c0.2-0.9,0.1-1.9-0.2-2.8C35,9,34.5,8.1,33.9,7.4c-0.7-0.7-1.5-1.2-2.4-1.5c-0.9-0.3-1.9-0.4-2.8-0.3c-0.7,0.1-1.4,0.3-2,0.6
	c0.3,1.3,0.3,2.6,0,3.9c-0.1,0.5-0.7,0.9-1.2,0.7c-0.5-0.1-0.9-0.7-0.7-1.2c0.3-1.2,0.3-2.4-0.1-3.5c0,0,0,0,0,0
	c-0.4-1.2-1.2-2.2-2.2-2.9c-2.1-1.5-5-1.5-7.1,0c-0.8,0.6-1.5,1.4-2,2.3C14,6,14.7,6.8,15.1,7.6c0.3,0.5,0.1,1.1-0.4,1.4
	c-0.5,0.3-1.1,0.1-1.4-0.4c-0.5-0.8-1.1-1.5-1.9-2c0,0,0,0,0,0c-0.8-0.5-1.7-0.8-2.6-1c-0.9-0.1-1.9,0-2.8,0.3
	C5.2,6.2,4.3,6.8,3.7,7.4S2.5,9,2.3,9.9s-0.3,1.9-0.2,2.8c0.2,0.9,0.5,1.8,1.1,2.6c0.6,0.8,1.3,1.4,2.2,1.8c0.8,0.4,1.8,0.7,2.7,0.7
	c0.6,0,1,0.4,1,1c0,0.6-0.4,1-1,1c0,0,0,0,0,0c-1.3,0-2.5-0.3-3.6-0.9c-1.1-0.6-2.1-1.4-2.9-2.4c-0.8-1-1.3-2.2-1.5-3.4
	c-0.2-1.2-0.1-2.5,0.2-3.7c0.4-1.2,1-2.3,1.9-3.2c0.9-0.9,2-1.6,3.1-2c1.2-0.4,2.5-0.6,3.7-0.4C10,3.7,10.8,4,11.6,4.3
	c0.6-1.1,1.4-2.1,2.5-2.8c2.8-2,6.6-2,9.4,0c1.1,0.7,1.9,1.7,2.5,2.8c0.8-0.4,1.6-0.6,2.5-0.7c1.2-0.2,2.5,0,3.7,0.4
	c1.2,0.4,2.3,1.1,3.1,2c0.9,0.9,1.5,2,1.9,3.2c0.4,1.2,0.4,2.5,0.2,3.7c-0.2,1.2-0.7,2.4-1.5,3.4c-0.8,1-1.7,1.8-2.9,2.4
	C32,19.5,30.7,19.8,29.4,19.8L29.4,19.8z"/>
<path class="st0" d="M31.2,34c-0.1,0-0.2,0-0.3-0.1c-3.3-1.1-7.6-1.7-12.1-1.7S10,32.8,6.6,33.9c-0.5,0.2-1.1-0.1-1.3-0.6
	c-0.2-0.5,0.1-1.1,0.6-1.3c0.4-0.1,0.8-0.3,1.2-0.4c-0.1-0.1-0.1-0.3-0.1-0.5v-4.4c0,0,0,0,0,0V17c0-0.6,0.4-1,1-1s1,0.4,1,1v8.4
	c2.8-0.9,6.2-1.4,9.7-1.4c3.5,0,6.8,0.5,9.7,1.4V17c0-0.6,0.4-1,1-1s1,0.4,1,1v9.8c0,0,0,0,0,0v4.4c0,0.2,0,0.3-0.1,0.5
	c0.4,0.1,0.8,0.2,1.2,0.4c0.5,0.2,0.8,0.7,0.6,1.3C32,33.7,31.6,34,31.2,34z M18.8,30.2c3.4,0,6.7,0.3,9.7,1v-3.7
	c-2.7-1-6.1-1.5-9.7-1.5s-6.9,0.5-9.7,1.5v3.7C12,30.6,15.4,30.2,18.8,30.2z"/>
</svg>
