<?xml version="1.0" encoding="utf-8"?>
<!-- Generator: Adobe Illustrator 27.9.0, SVG Export Plug-In . SVG Version: 6.00 Build 0)  -->
<svg version="1.1" id="Слой_1" xmlns="http://www.w3.org/2000/svg" xmlns:xlink="http://www.w3.org/1999/xlink" x="0px" y="0px"
	 viewBox="0 0 21 21" style="enable-background:new 0 0 21 21;" xml:space="preserve">
<style type="text/css">
	.st0{fill:#374151;}
</style>
<path class="st0" d="M10.5,21C4.7,21,0,16.3,0,10.5S4.7,0,10.5,0S21,4.7,21,10.5S16.3,21,10.5,21z M10.5,1.5c-5,0-9,4-9,9s4,9,9,9
	s9-4,9-9S15.5,1.5,10.5,1.5z"/>
<path class="st0" d="M13.5,14.2c-0.1,0-0.3,0-0.4-0.1l-3.8-2.2c-0.1-0.1-0.2-0.2-0.3-0.3C9,11.5,9,11.4,9,11.2v-6
	c0-0.4,0.3-0.8,0.8-0.8s0.8,0.3,0.8,0.8v5.6l3.4,2c0.1,0.1,0.2,0.2,0.3,0.4c0.1,0.2,0.1,0.3,0,0.5c0,0.2-0.1,0.3-0.3,0.4
	C13.8,14.2,13.7,14.2,13.5,14.2z"/>
</svg>
