<?xml version="1.0" encoding="utf-8"?>
<!-- Generator: Adobe Illustrator 27.9.0, SVG Export Plug-In . SVG Version: 6.00 Build 0)  -->
<svg version="1.1" id="Слой_1" xmlns="http://www.w3.org/2000/svg" xmlns:xlink="http://www.w3.org/1999/xlink" x="0px" y="0px"
	 viewBox="0 0 26 29" style="enable-background:new 0 0 26 29;" xml:space="preserve">
<style type="text/css">
	.st0{fill:#2CACBB;}
</style>
<path class="st0" d="M24.8,28.2h-24c-0.4,0-0.8-0.3-0.8-0.8s0.3-0.8,0.8-0.8h1.9V8.8c0-4,0-6,1.4-7.4C5.4,0,7.4,0,11.4,0h2.7
	c4,0,6,0,7.4,1.4c1.4,1.4,1.4,3.4,1.4,7.4v17.9h1.9c0.4,0,0.8,0.3,0.8,0.8S25.2,28.2,24.8,28.2z M4.2,26.7h17.2V8.8
	c0-3.6,0-5.3-1-6.3c-1-1-2.7-1-6.3-1h-2.7c-3.6,0-5.3,0-6.3,1c-1,1-1,2.7-1,6.3V26.7z"/>
<path class="st0" d="M16.8,15.1c-0.6,0-1-0.4-1-1v0c0-0.6,0.4-1,1-1s1,0.4,1,1S17.3,15.1,16.8,15.1z"/>
</svg>
