<svg width="20" height="16" viewBox="0 0 20 16" fill="none" xmlns="http://www.w3.org/2000/svg">
<path d="M20 3.53516V13.0002C20 13.7654 19.7077 14.5017 19.1827 15.0584C18.6578 15.6152 17.9399 15.9503 17.176 15.9952L17 16.0002H3C2.23479 16.0002 1.49849 15.7078 0.941739 15.1829C0.384993 14.6579 0.0498925 13.9401 0.00500011 13.1762L0 13.0002V3.53516L9.445 9.83216L9.561 9.89816C9.69771 9.96495 9.84785 9.99967 10 9.99967C10.1522 9.99967 10.3023 9.96495 10.439 9.89816L10.555 9.83216L20 3.53516Z" fill="white"/>
<path d="M17.0001 0C18.0801 0 19.0271 0.57 19.5551 1.427L10.0001 7.797L0.445068 1.427C0.695861 1.01982 1.04036 0.6785 1.44984 0.431489C1.85932 0.184479 2.32192 0.0389373 2.79907 0.00699997L3.00007 0H17.0001Z" fill="white"/>
</svg>
