<?xml version="1.0" encoding="utf-8"?>
<!-- Generator: Adobe Illustrator 27.9.0, SVG Export Plug-In . SVG Version: 6.00 Build 0)  -->
<svg version="1.1" id="Слой_1" xmlns="http://www.w3.org/2000/svg" xmlns:xlink="http://www.w3.org/1999/xlink" x="0px" y="0px"
	 viewBox="0 0 25 31" style="enable-background:new 0 0 25 31;" xml:space="preserve">
<style type="text/css">
	.st0{fill:#2CACBB;}
</style>
<path class="st0" d="M23.6,30.2c-0.5,0-0.9-0.4-0.9-0.9v-7.1c0-2.5,0-3.7-0.6-4.2c-0.5-0.5-1.5-0.6-3.6-0.6l-5.4,12.3
	c-0.3,0.7-1.4,0.7-1.6,0L6,17.4c-2.2,0-3.1,0.1-3.6,0.6c-0.5,0.5-0.6,1.7-0.6,4.2v7.1c0,0.5-0.4,0.9-0.9,0.9S0,29.8,0,29.3v-7.1
	c0-2.8,0-4.4,1.1-5.5c1.1-1.1,2.7-1.1,5.5-1.1c0.4,0,0.7,0.2,0.8,0.5l4.9,10.9l4.8-10.9c0.1-0.3,0.5-0.5,0.8-0.5
	c2.8,0,4.4,0,5.5,1.1c1.1,1.1,1.1,2.7,1.1,5.5v7.1C24.5,29.8,24.1,30.2,23.6,30.2z"/>
<path class="st0" d="M12.2,28.1c-0.4,0-0.7-0.2-0.9-0.6l-0.7-2.1c0-0.1-0.1-0.3,0-0.4l0.7-5.4L10,16.9c-0.1-0.3-0.1-0.6,0-0.9
	c0.2-0.3,0.5-0.4,0.8-0.4h2.8c0.3,0,0.6,0.2,0.8,0.4c0.2,0.3,0.2,0.6,0,0.9l-1.3,2.6l0.7,5.4c0,0.1,0,0.3,0,0.4l-0.7,2.1
	C13,27.9,12.6,28.1,12.2,28.1z M12.2,13.2c-0.8,0-1.5-0.2-2.2-0.4c-0.7-0.3-1.4-0.7-1.9-1.3c-0.5-0.5-1-1.2-1.3-1.9
	C6.5,8.8,6.4,8.1,6.4,7.3V5.9c0-1.6,0.6-3,1.7-4.2C9.2,0.6,10.7,0,12.2,0s3,0.6,4.1,1.7c1.1,1.1,1.7,2.6,1.7,4.2v1.4
	c0,0.8-0.2,1.5-0.4,2.2c-0.3,0.7-0.7,1.4-1.3,1.9c-0.5,0.5-1.2,1-1.9,1.3S13,13.2,12.2,13.2z M12.2,1.8c-1.1,0-2.1,0.4-2.9,1.2
	C8.6,3.8,8.2,4.8,8.2,5.9v1.4c0,0.5,0.1,1.1,0.3,1.6C8.7,9.4,9,9.8,9.4,10.2c0.4,0.4,0.8,0.7,1.3,0.9c1,0.4,2.1,0.4,3.1,0
	c0.5-0.2,0.9-0.5,1.3-0.9c0.4-0.4,0.7-0.8,0.9-1.3c0.2-0.5,0.3-1,0.3-1.6V5.9c0-1.1-0.4-2.1-1.2-2.9C14.4,2.2,13.3,1.8,12.2,1.8z"/>
</svg>
