<?xml version="1.0" encoding="utf-8"?>
<!-- Generator: Adobe Illustrator 27.9.0, SVG Export Plug-In . SVG Version: 6.00 Build 0)  -->
<svg version="1.1" id="Слой_1" xmlns="http://www.w3.org/2000/svg" xmlns:xlink="http://www.w3.org/1999/xlink" x="0px" y="0px"
	 viewBox="0 0 38 34" style="enable-background:new 0 0 38 34;" xml:space="preserve">
<style type="text/css">
	.st0{fill:#2CACBB;}
</style>
<path class="st0" d="M36.5,26.7H0.9c-0.5,0-0.9-0.4-0.9-0.9s0.4-0.9,0.9-0.9h35.6c0.5,0,0.9,0.4,0.9,0.9S37,26.7,36.5,26.7z"/>
<path class="st0" d="M18.7,8.9c-0.2,0-0.4-0.1-0.5-0.2c-0.1-0.1-3.1-2.1-3.1-4.9c0-2.6,1.8-3.9,3.6-3.9s3.6,1.3,3.6,3.9
	c0,2.7-2.9,4.8-3.1,4.9C19.1,8.9,18.9,8.9,18.7,8.9z M18.7,1.8c-0.9,0-1.8,0.6-1.8,2.1c0,1.2,1.1,2.3,1.8,2.9
	c0.7-0.7,1.7-1.8,1.7-2.9c0-0.7-0.2-1.2-0.6-1.6C19.6,2,19.1,1.8,18.7,1.8z"/>
<path class="st0" d="M30.1,33.8H7.2c-1,0-2-0.3-2.8-0.9c-0.8-0.6-1.3-1.5-1.6-2.4L1.8,26c-0.1-0.5,0.2-1,0.7-1.1s1,0.2,1.1,0.7
	L4.7,30c0.1,0.6,0.5,1.1,0.9,1.4c0.5,0.4,1,0.6,1.6,0.6h22.9c0.6,0,1.2-0.2,1.6-0.6c0.5-0.4,0.8-0.9,0.9-1.4l1.1-4.4
	c0.1-0.5,0.6-0.8,1.1-0.7c0.5,0.1,0.8,0.6,0.7,1.1l-1.1,4.4c-0.2,1-0.8,1.8-1.6,2.4C32.1,33.5,31.1,33.8,30.1,33.8z M33.8,22.3
	c-0.5,0-0.9-0.3-0.9-0.8c-0.8-7.1-6.9-12.5-14.2-12.5c-7.3,0-13.4,5.4-14.2,12.5c-0.1,0.5-0.5,0.9-1,0.8c-0.5-0.1-0.9-0.5-0.8-1
	c1-8.1,7.8-14.1,16-14.1c8.2,0,15.1,6.1,16,14.1c0.1,0.5-0.3,1-0.8,1C33.9,22.3,33.8,22.3,33.8,22.3z"/>
</svg>
