<?xml version="1.0" encoding="utf-8"?>
<!-- Generator: Adobe Illustrator 27.9.0, SVG Export Plug-In . SVG Version: 6.00 Build 0)  -->
<svg version="1.1" id="Слой_1" xmlns="http://www.w3.org/2000/svg" xmlns:xlink="http://www.w3.org/1999/xlink" x="0px" y="0px"
	 viewBox="0 0 32 32" style="enable-background:new 0 0 32 32;" xml:space="preserve">
<style type="text/css">
	.st0{fill:#FFFFFF;}
</style>
<path class="st0" d="M16,0C7.2,0,0,7.2,0,16s7.2,16,16,16s16-7.2,16-16S24.8,0,16,0z M23.7,8.1l-2.3,14c-0.1,0.5-0.6,0.8-1.1,0.6
	l-4-1.7l-2.1,2.5c-0.5,0.6-1.4,0.3-1.4-0.5v-2.6l7.8-9.5c0.2-0.2-0.1-0.4-0.3-0.3L11,18.8l-3.5-1.4c-0.6-0.2-0.7-1.1-0.1-1.4
	l15.1-8.7C23.1,7,23.8,7.5,23.7,8.1z"/>
</svg>
