<svg width="31" height="32" viewBox="0 0 31 32" fill="none" xmlns="http://www.w3.org/2000/svg">
<g clip-path="url(#clip0_2010_1394)">
<path d="M15.3041 0.347656C7.03653 0.356699 0.341064 7.06608 0.350107 15.3337C0.352221 17.8425 0.985432 20.3105 2.19145 22.5105L1.04365 29.5642L8.09737 28.4164C15.3389 32.3885 24.4308 29.7388 28.4029 22.4966C32.375 15.2544 29.726 6.16384 22.4838 2.19108C20.2833 0.984002 17.8139 0.35006 15.3041 0.347656ZM7.82607 7.14399H11.9025C12.087 7.14399 12.2639 7.21728 12.3944 7.34774C12.5248 7.47819 12.5981 7.65513 12.5981 7.83962C12.5753 8.76732 12.7312 9.69074 13.0572 10.5595C13.1976 10.8504 13.2285 11.1821 13.1442 11.4938C13.0599 11.8056 12.866 12.0765 12.5981 12.2569L11.1721 13.6482C11.8044 14.8829 12.6311 16.008 13.6207 16.9802C14.5851 17.9859 15.7056 18.8292 16.9389 19.4776L18.3301 18.0515C19.0258 17.3559 19.3458 17.3559 20.0275 17.5924C20.8963 17.9185 21.8197 18.0743 22.7474 18.0515C22.9292 18.06 23.1012 18.136 23.2299 18.2647C23.3586 18.3933 23.4346 18.5654 23.443 18.7471V22.8236C23.4346 23.0053 23.3586 23.1774 23.2299 23.306C23.1012 23.4347 22.9292 23.5107 22.7474 23.5192C18.6554 23.3409 14.7766 21.6446 11.8677 18.7611C8.97969 15.8552 7.28253 11.9746 7.10957 7.88136C7.11123 7.68989 7.18661 7.50642 7.32005 7.36909C7.45349 7.23176 7.63472 7.15114 7.82607 7.14399Z" fill="white"/>
</g>
<defs>
<clipPath id="clip0_2010_1394">
<rect width="30.6078" height="31.9991" fill="white"/>
</clipPath>
</defs>
</svg>
