<svg width="32" height="32" viewBox="0 0 32 32" fill="none" xmlns="http://www.w3.org/2000/svg">
<path d="M16 8.88889C10.8453 8.88889 6.66667 13.0676 6.66667 18.2222C6.66667 23.3769 10.8453 27.5556 16 27.5556C21.1547 27.5556 25.3333 23.3769 25.3333 18.2222C25.3333 13.0676 21.1547 8.88889 16 8.88889ZM8.88889 18.2222C8.88757 16.4369 9.55783 14.7164 10.7665 13.4025C11.9752 12.0886 13.6339 11.2774 15.4131 11.1301C17.1924 10.9828 18.9619 11.5101 20.3703 12.6073C21.7786 13.7044 22.7228 15.2912 23.0151 17.0524L22.9947 17.0747C22.584 17.5156 22.1591 17.9724 21.3769 18.3093C20.4311 18.7182 18.8711 18.9609 16.1796 18.288C13.1751 17.5369 11.1511 17.984 9.73511 18.8613C9.47241 19.0244 9.22224 19.2068 8.98667 19.4071C8.92106 19.0156 8.88835 18.6192 8.88889 18.2222ZM10.6667 5.55556C10.6667 6.02705 10.4794 6.47924 10.146 6.81263C9.81257 7.14603 9.36038 7.33333 8.88889 7.33333C8.41739 7.33333 7.96521 7.14603 7.63181 6.81263C7.29841 6.47924 7.11111 6.02705 7.11111 5.55556C7.11111 5.08406 7.29841 4.63188 7.63181 4.29848C7.96521 3.96508 8.41739 3.77778 8.88889 3.77778C9.36038 3.77778 9.81257 3.96508 10.146 4.29848C10.4794 4.63188 10.6667 5.08406 10.6667 5.55556ZM17.1111 4.44444C16.8164 4.44444 16.5338 4.56151 16.3254 4.76988C16.1171 4.97826 16 5.26087 16 5.55556C16 5.85024 16.1171 6.13286 16.3254 6.34123C16.5338 6.5496 16.8164 6.66667 17.1111 6.66667H23.7778C24.0725 6.66667 24.3551 6.5496 24.5635 6.34123C24.7718 6.13286 24.8889 5.85024 24.8889 5.55556C24.8889 5.26087 24.7718 4.97826 24.5635 4.76988C24.3551 4.56151 24.0725 4.44444 23.7778 4.44444H17.1111ZM5.55556 0C4.08213 0 2.66905 0.585316 1.62718 1.62718C0.585316 2.66905 0 4.08213 0 5.55556V26.4444C0 27.9179 0.585316 29.3309 1.62718 30.3728C2.66905 31.4147 4.08213 32 5.55556 32H26.4444C27.9179 32 29.3309 31.4147 30.3728 30.3728C31.4147 29.3309 32 27.9179 32 26.4444V5.55556C32 4.08213 31.4147 2.66905 30.3728 1.62718C29.3309 0.585316 27.9179 0 26.4444 0H5.55556ZM2.22222 5.55556C2.22222 4.6715 2.57341 3.82365 3.19853 3.19853C3.82365 2.57341 4.6715 2.22222 5.55556 2.22222H26.4444C27.3285 2.22222 28.1763 2.57341 28.8015 3.19853C29.4266 3.82365 29.7778 4.6715 29.7778 5.55556V26.4444C29.7778 27.3285 29.4266 28.1763 28.8015 28.8015C28.1763 29.4266 27.3285 29.7778 26.4444 29.7778H5.55556C4.6715 29.7778 3.82365 29.4266 3.19853 28.8015C2.57341 28.1763 2.22222 27.3285 2.22222 26.4444V5.55556Z" fill="#2CACBB"/>
</svg>
