<svg width="48" height="50" viewBox="0 0 48 50" fill="none" xmlns="http://www.w3.org/2000/svg">
<g clip-path="url(#clip0_432_13608)">
<path fill-rule="evenodd" clip-rule="evenodd" d="M24.0001 0.545898C11.0347 0.56008 0.534661 11.0819 0.548842 24.0474C0.552158 27.9818 1.54517 31.8522 3.43648 35.3023L1.63648 46.3641L12.6983 44.5641C24.0547 50.7932 38.3128 46.6379 44.5419 35.2804C50.771 23.923 46.6168 9.66699 35.2594 3.43681C31.8087 1.54383 27.936 0.549668 24.0001 0.545898ZM18.6656 11.2041H12.2728C11.9728 11.2153 11.6886 11.3417 11.4793 11.5571C11.27 11.7724 11.1518 12.0602 11.1492 12.3604C11.4204 18.7795 14.082 24.8653 18.611 29.4223C23.1728 33.9442 29.2557 36.6045 35.6728 36.8841C35.9579 36.8708 36.2277 36.7516 36.4295 36.5498C36.6313 36.348 36.7505 36.0782 36.7637 35.7932V29.4004C36.7505 29.1154 36.6313 28.8456 36.4295 28.6438C36.2277 28.442 35.9579 28.3228 35.6728 28.3095C34.218 28.3453 32.7699 28.1009 31.4074 27.5895C30.3383 27.2186 29.8365 27.2186 28.7456 28.3095L26.5637 30.5459C24.6296 29.5291 22.8725 28.2067 21.3601 26.6295C19.8083 25.1048 18.5117 23.3405 17.5201 21.4041L19.7565 19.2223C20.1766 18.9394 20.4806 18.5145 20.6129 18.0256C20.7451 17.5367 20.6967 17.0165 20.4765 16.5604C19.9651 15.198 19.7207 13.7498 19.7565 12.295C19.7565 12.0057 19.6415 11.7282 19.437 11.5236C19.2324 11.319 18.9549 11.2041 18.6656 11.2041Z" fill="#55C153"/>
<path d="M12.2726 11.2041H18.6653C18.9547 11.2041 19.2321 11.319 19.4367 11.5236C19.6413 11.7282 19.7562 12.0057 19.7562 12.295C19.7204 13.7498 19.9649 15.198 20.4762 16.5604C20.6964 17.0165 20.7449 17.5367 20.6126 18.0256C20.4804 18.5145 20.1763 18.9394 19.7562 19.2223L17.5199 21.4041C18.5115 23.3405 19.808 25.1048 21.3599 26.6295C22.8722 28.2067 24.6294 29.5291 26.5635 30.5459L28.7453 28.3095C29.8362 27.2186 30.338 27.2186 31.4071 27.5895C32.7696 28.1009 34.2178 28.3453 35.6726 28.3095C35.9576 28.3228 36.2275 28.442 36.4292 28.6438C36.631 28.8456 36.7502 29.1154 36.7635 29.4004V35.7932C36.7502 36.0782 36.631 36.348 36.4292 36.5498C36.2275 36.7516 35.9576 36.8708 35.6726 36.8841C29.2554 36.6045 23.1726 33.9442 18.6108 29.4223C14.0817 24.8653 11.4202 18.7795 11.149 12.3604C11.1516 12.0602 11.2698 11.7724 11.479 11.5571C11.6883 11.3417 11.9725 11.2153 12.2726 11.2041Z" fill="white"/>
</g>
<defs>
<clipPath id="clip0_432_13608">
<rect width="48" height="50" fill="white"/>
</clipPath>
</defs>
</svg>
