<svg width="50" height="53" viewBox="0 0 50 53" fill="none" xmlns="http://www.w3.org/2000/svg">
<g clip-path="url(#clip0_598_6877)">
<g clip-path="url(#clip1_598_6877)">
<path fill-rule="evenodd" clip-rule="evenodd" d="M24.913 0.566162C11.4543 0.580883 0.554874 11.503 0.569595 24.9617C0.573037 29.0458 1.60383 33.0635 3.56709 36.6448L1.69861 48.1274L13.1813 46.2589C24.9697 52.725 39.7703 48.4117 46.2363 36.6221C52.7024 24.8326 48.3902 10.0343 36.6006 3.56705C33.0186 1.60206 28.9986 0.570075 24.913 0.566162ZM19.3755 11.6298H12.7396C12.4281 11.6415 12.1331 11.7727 11.9159 11.9963C11.6986 12.2198 11.5759 12.5185 11.5732 12.8302C11.8548 19.4935 14.6176 25.8107 19.3189 30.5411C24.0543 35.2351 30.3685 37.9966 37.0298 38.2868C37.3257 38.273 37.6058 38.1493 37.8153 37.9398C38.0247 37.7304 38.1485 37.4503 38.1622 37.1544V30.5184C38.1485 30.2225 38.0247 29.9425 37.8153 29.733C37.6058 29.5235 37.3257 29.3998 37.0298 29.386C35.5197 29.4232 34.0164 29.1694 32.6021 28.6386C31.4923 28.2536 30.9714 28.2536 29.839 29.386L27.5742 31.7075C25.5665 30.652 23.7425 29.2792 22.1726 27.6421C20.5617 26.0594 19.2158 24.2279 18.1865 22.2179L20.508 19.953C20.944 19.6594 21.2596 19.2184 21.3969 18.7109C21.5342 18.2034 21.4839 17.6634 21.2553 17.19C20.7246 15.7756 20.4708 14.2724 20.508 12.7622C20.508 12.4619 20.3886 12.1739 20.1763 11.9615C19.9639 11.7491 19.6759 11.6298 19.3755 11.6298Z" fill="#CEE4E6"/>
<path d="M12.7394 11.6298H19.3753C19.6756 11.6298 19.9637 11.7491 20.176 11.9615C20.3884 12.1739 20.5077 12.4619 20.5077 12.7622C20.4706 14.2724 20.7243 15.7756 21.2551 17.19C21.4837 17.6634 21.534 18.2034 21.3967 18.7109C21.2594 19.2184 20.9438 19.6594 20.5077 19.953L18.1863 22.2179C19.2156 24.2279 20.5615 26.0594 22.1724 27.6421C23.7423 29.2792 25.5663 30.652 27.574 31.7075L29.8388 29.386C30.9712 28.2536 31.4921 28.2536 32.6019 28.6386C34.0162 29.1694 35.5194 29.4232 37.0296 29.386C37.3255 29.3998 37.6056 29.5235 37.815 29.733C38.0245 29.9425 38.1482 30.2225 38.162 30.5184V37.1544C38.1482 37.4503 38.0245 37.7304 37.815 37.9398C37.6056 38.1493 37.3255 38.273 37.0296 38.2868C30.3683 37.9966 24.054 35.2351 19.3187 30.5411C14.6173 25.8107 11.8545 19.4935 11.573 12.8302C11.5757 12.5185 11.6984 12.2198 11.9156 11.9963C12.1329 11.7727 12.4279 11.6415 12.7394 11.6298Z" fill="#208B95"/>
</g>
</g>
<defs>
<clipPath id="clip0_598_6877">
<rect width="49.8261" height="52.0909" fill="white"/>
</clipPath>
<clipPath id="clip1_598_6877">
<rect width="49.8261" height="52.0909" fill="white"/>
</clipPath>
</defs>
</svg>
